<svg width="25" height="24" viewBox="0 0 25 24" fill="none" xmlns="http://www.w3.org/2000/svg">
<mask id="path-1-inside-1_2_8" fill="white">
<path fill-rule="evenodd" clip-rule="evenodd" d="M14.5612 2.86616C13.4245 1.95778 11.7959 1.98711 10.6932 2.93582L4.30782 8.04702C3.72568 8.49497 3.37774 9.1794 3.36055 9.91039V18.4349C3.36055 20.2911 4.87635 21.7959 6.74618 21.7959H8.62319C9.28827 21.7959 9.82878 21.2632 9.8336 20.603L9.85992 20.5943V17.599C9.85992 16.8343 10.4843 16.2145 11.2545 16.2145H14.07C14.4399 16.2145 14.7946 16.3604 15.0562 16.62C15.3177 16.8796 15.4646 17.2318 15.4646 17.599V20.5943C15.4623 20.9122 15.5879 21.2178 15.8135 21.4434C16.0391 21.669 16.3461 21.7959 16.6663 21.7959H18.5871C19.4843 21.7982 20.3454 21.446 20.9806 20.8171C21.6158 20.1882 21.9728 19.3342 21.9728 18.4436V9.91039C21.9728 9.19098 21.6515 8.50858 21.0957 8.04702L14.5612 2.86616ZM20.2743 9.05484L13.7536 3.88483L13.7496 3.88171C13.1012 3.36348 12.1696 3.38049 11.541 3.9213L11.5235 3.93633L11.5056 3.95072L5.12021 9.06192L5.11048 9.06971L5.10061 9.0773C4.83146 9.28441 4.67204 9.59698 4.66055 9.9286V18.4349C4.66055 19.5642 5.58537 20.4959 6.74618 20.4959H8.53435L8.54044 19.6616L8.55992 19.6551V17.599C8.55992 16.1075 9.77529 14.9145 11.2545 14.9145H14.07C14.7816 14.9145 15.466 15.195 15.972 15.6974C16.4784 16.2001 16.7646 16.8839 16.7646 17.599V20.4959H18.5871H18.5905C19.1453 20.4973 19.676 20.2794 20.0659 19.8933C20.4556 19.5075 20.6728 18.9857 20.6728 18.4436V9.91039C20.6728 9.58347 20.5286 9.27047 20.2743 9.05484Z"/>
</mask>
<path d="M14.5612 2.86616L13.9369 3.64736L13.9399 3.64975L14.5612 2.86616ZM10.6932 2.93582L11.3181 3.71651L11.3319 3.70544L11.3453 3.69388L10.6932 2.93582ZM4.30782 8.04702L4.91766 8.83955L4.92526 8.8337L4.93274 8.82771L4.30782 8.04702ZM3.36055 9.91039L2.36082 9.88687L2.36055 9.89863V9.91039H3.36055ZM9.8336 20.603L9.51946 19.6536L8.83886 19.8788L8.83363 20.5957L9.8336 20.603ZM9.85992 20.5943L10.1741 21.5437L10.8599 21.3167V20.5943H9.85992ZM15.4646 20.5943L16.4646 20.6016V20.5943H15.4646ZM15.8135 21.4434L16.5206 20.7363L16.5206 20.7363L15.8135 21.4434ZM18.5871 21.7959L18.5897 20.7959H18.5871V21.7959ZM20.9806 20.8171L20.277 20.1065L20.277 20.1065L20.9806 20.8171ZM21.0957 8.04702L21.7345 7.27766L21.7258 7.27045L21.7169 7.26343L21.0957 8.04702ZM13.7536 3.88483L13.1307 4.66719L13.1323 4.66842L13.7536 3.88483ZM20.2743 9.05484L20.9211 8.29216L20.9085 8.28149L20.8956 8.27125L20.2743 9.05484ZM13.7496 3.88171L13.1253 4.6629L13.1268 4.66407L13.7496 3.88171ZM11.541 3.9213L10.8888 3.16324L10.8888 3.16324L11.541 3.9213ZM11.5235 3.93633L12.1484 4.71702L12.1623 4.70595L12.1757 4.69439L11.5235 3.93633ZM11.5056 3.95072L10.8806 3.17002L10.8806 3.17002L11.5056 3.95072ZM5.12021 9.06192L4.4953 8.28123L4.49529 8.28123L5.12021 9.06192ZM5.11048 9.06971L5.72033 9.86223L5.72792 9.85639L5.7354 9.8504L5.11048 9.06971ZM5.10061 9.0773L5.71045 9.86983L5.71045 9.86983L5.10061 9.0773ZM4.66055 9.9286L3.66115 9.89397L3.66055 9.91128V9.9286H4.66055ZM8.53435 20.4959V21.4959H9.52708L9.53432 20.5032L8.53435 20.4959ZM8.54044 19.6616L8.22628 18.7122L7.5457 18.9374L7.54047 19.6543L8.54044 19.6616ZM8.55992 19.6551L8.87408 20.6045L9.55992 20.3775V19.6551H8.55992ZM15.972 15.6974L16.6766 14.9877L16.6766 14.9877L15.972 15.6974ZM16.7646 20.4959H15.7646V21.4959H16.7646V20.4959ZM18.5905 20.4959L18.5931 19.4959H18.5905V20.4959ZM20.0659 19.8933L20.7695 20.6039L20.7695 20.6039L20.0659 19.8933ZM15.1855 2.08497C13.6733 0.876464 11.5085 0.915269 10.041 2.17775L11.3453 3.69388C12.0834 3.05894 13.1758 3.03909 13.9369 3.64735L15.1855 2.08497ZM10.0683 2.15512L3.68291 7.26633L4.93274 8.82771L11.3181 3.71651L10.0683 2.15512ZM3.69798 7.25449C2.87765 7.88573 2.38516 8.8522 2.36082 9.88687L4.36027 9.9339C4.37032 9.5066 4.57371 9.10421 4.91766 8.83955L3.69798 7.25449ZM2.36055 9.91039V18.4349H4.36055V9.91039H2.36055ZM2.36055 18.4349C2.36055 20.8503 4.33095 22.7959 6.74618 22.7959V20.7959C5.42175 20.7959 4.36055 19.732 4.36055 18.4349H2.36055ZM6.74618 22.7959H8.62319V20.7959H6.74618V22.7959ZM8.62319 22.7959C9.83088 22.7959 10.8247 21.8268 10.8336 20.6103L8.83363 20.5957C8.83287 20.6997 8.74567 20.7959 8.62319 20.7959V22.7959ZM10.1478 21.5524L10.1741 21.5437L9.54577 19.6449L9.51946 19.6536L10.1478 21.5524ZM10.8599 20.5943V17.599H8.85992V20.5943H10.8599ZM10.8599 17.599C10.8599 17.3935 11.0297 17.2145 11.2545 17.2145V15.2145C9.93891 15.2145 8.85992 16.2752 8.85992 17.599H10.8599ZM11.2545 17.2145H14.07V15.2145H11.2545V17.2145ZM14.07 17.2145C14.177 17.2145 14.2782 17.2568 14.3516 17.3297L15.7607 15.9103C15.3111 15.464 14.7028 15.2145 14.07 15.2145V17.2145ZM14.3516 17.3297C14.4248 17.4024 14.4646 17.4994 14.4646 17.599H16.4646C16.4646 16.9642 16.2106 16.3569 15.7607 15.9103L14.3516 17.3297ZM14.4646 17.599V20.5943H16.4646V17.599H14.4646ZM14.4647 20.5869C14.4604 21.1737 14.6922 21.7364 15.1064 22.1505L16.5206 20.7363C16.4835 20.6993 16.4643 20.6507 16.4646 20.6016L14.4647 20.5869ZM15.1064 22.1505C15.5203 22.5645 16.0819 22.7959 16.6663 22.7959V20.7959C16.6102 20.7959 16.5579 20.7736 16.5206 20.7363L15.1064 22.1505ZM16.6663 22.7959H18.5871V20.7959H16.6663V22.7959ZM18.5846 22.7959C19.745 22.7989 20.8604 22.3434 21.6842 21.5277L20.277 20.1065C19.8305 20.5487 19.2235 20.7975 18.5897 20.7959L18.5846 22.7959ZM21.6842 21.5277C22.5083 20.7117 22.9728 19.6022 22.9728 18.4436H20.9728C20.9728 19.0661 20.7233 19.6646 20.277 20.1065L21.6842 21.5277ZM22.9728 18.4436V9.91039H20.9728V18.4436H22.9728ZM22.9728 9.91039C22.9728 8.89206 22.518 7.92823 21.7345 7.27766L20.4569 8.81638C20.7851 9.08892 20.9728 9.4899 20.9728 9.91039H22.9728ZM21.7169 7.26343L15.1825 2.08256L13.9399 3.64975L20.4744 8.83061L21.7169 7.26343ZM13.1323 4.66842L19.6531 9.83843L20.8956 8.27125L14.3748 3.10124L13.1323 4.66842ZM13.1268 4.66407L13.1307 4.66719L14.3764 3.10247L14.3725 3.09935L13.1268 4.66407ZM12.1932 4.67937C12.4571 4.45231 12.8524 4.44481 13.1253 4.6629L14.3739 3.10052C13.3499 2.28215 11.8821 2.30868 10.8888 3.16324L12.1932 4.67937ZM12.1757 4.69439L12.1932 4.67937L10.8888 3.16324L10.8714 3.17826L12.1757 4.69439ZM12.1305 4.73142L12.1484 4.71702L10.8986 3.15563L10.8806 3.17002L12.1305 4.73142ZM5.74512 9.84262L12.1305 4.73141L10.8806 3.17002L4.4953 8.28123L5.74512 9.84262ZM5.7354 9.8504L5.74513 9.84261L4.49529 8.28123L4.48557 8.28902L5.7354 9.8504ZM5.71045 9.86983L5.72033 9.86223L4.50064 8.27718L4.49077 8.28478L5.71045 9.86983ZM5.65995 9.96323C5.66106 9.93095 5.67668 9.89582 5.71045 9.86983L4.49078 8.28478C3.98624 8.67301 3.68301 9.26301 3.66115 9.89397L5.65995 9.96323ZM5.66055 18.4349V9.9286H3.66055V18.4349H5.66055ZM6.74618 19.4959C6.13207 19.4959 5.66055 19.0064 5.66055 18.4349H3.66055C3.66055 20.1221 5.03866 21.4959 6.74618 21.4959V19.4959ZM8.53435 19.4959H6.74618V21.4959H8.53435V19.4959ZM7.54047 19.6543L7.53438 20.4886L9.53432 20.5032L9.54041 19.6689L7.54047 19.6543ZM8.24575 18.7058L8.22628 18.7122L8.8546 20.6109L8.87408 20.6045L8.24575 18.7058ZM7.55992 17.599V19.6551H9.55992V17.599H7.55992ZM11.2545 13.9145C9.2309 13.9145 7.55992 15.5473 7.55992 17.599H9.55992C9.55992 16.6676 10.3197 15.9145 11.2545 15.9145V13.9145ZM14.07 13.9145H11.2545V15.9145H14.07V13.9145ZM16.6766 14.9877C15.9824 14.2986 15.0445 13.9145 14.07 13.9145V15.9145C14.5188 15.9145 14.9496 16.0915 15.2675 16.4071L16.6766 14.9877ZM17.7646 17.599C17.7646 16.6163 17.3713 15.6774 16.6766 14.9877L15.2675 16.4071C15.5856 16.7228 15.7646 17.1515 15.7646 17.599H17.7646ZM17.7646 20.4959V17.599H15.7646V20.4959H17.7646ZM18.5871 19.4959H16.7646V21.4959H18.5871V19.4959ZM18.5905 19.4959H18.5871V21.4959H18.5905V19.4959ZM19.3623 19.1827C19.161 19.3821 18.8845 19.4967 18.5931 19.4959L18.5879 21.4959C19.4061 21.498 20.191 21.1768 20.7695 20.6039L19.3623 19.1827ZM19.6728 18.4436C19.6728 18.7177 19.563 18.984 19.3623 19.1827L20.7695 20.6039C21.3481 20.0311 21.6728 19.2537 21.6728 18.4436H19.6728ZM19.6728 9.91039V18.4436H21.6728V9.91039H19.6728ZM19.6276 9.81752C19.6589 9.84411 19.6728 9.87872 19.6728 9.91039H21.6728C21.6728 9.28822 21.3983 8.69684 20.9211 8.29216L19.6276 9.81752Z" fill="black" mask="url(#path-1-inside-1_2_8)"/>
</svg>
